<svg xmlns="http://www.w3.org/2000/svg" width="1000" height="520" viewBox="0 0 1000 520" role="img" aria-label="Online-Bookstore architecture: frontend, orchestrator, gRPC services, executor replicas, payment and replicated books database">
  <defs></defs>
  <style>
    text { font-family: ui-monospace, SFMono-Regular, Menlo, Consolas, "Liberation Mono", monospace; }
    @media (prefers-reduced-motion: reduce) { * { animation: none !important; } }
    .flow { stroke-dasharray: 4 7; animation: march 1.2s linear infinite; }
    @keyframes march { to { stroke-dashoffset: -22 } }
    .pulse { animation: pulse 3s ease-in-out infinite; } @keyframes pulse { 50% { opacity: .35 } }
  </style>
  <rect x="1" y="1" width="998" height="518" rx="20" fill="#f8f8f8" stroke="#e0e0e0"/>
<path d="M160 250 C185.0 250 185.0 250 210 250" fill="none" stroke="#a87714" stroke-opacity=".35" stroke-width="1.5" class="flow"/>
<path d="M360 235 C405.0 235 405.0 68 450 68" fill="none" stroke="#777777" stroke-opacity=".35" stroke-width="1.5" class="flow"/>
<path d="M360 245 C405.0 245 405.0 158 450 158" fill="none" stroke="#777777" stroke-opacity=".35" stroke-width="1.5" class="flow"/>
<path d="M360 255 C405.0 255 405.0 248 450 248" fill="none" stroke="#777777" stroke-opacity=".35" stroke-width="1.5" class="flow"/>
<path d="M545 96 L545 130" fill="none" stroke="#a87714" stroke-opacity=".35" stroke-width="1.5" class="flow"/>
<path d="M545 186 L545 220" fill="none" stroke="#a87714" stroke-opacity=".35" stroke-width="1.5" class="flow"/>
<path d="M360 268 C405.0 268 405.0 358 450 358" fill="none" stroke="#a87714" stroke-opacity=".35" stroke-width="1.5" class="flow"/>
<path d="M690 358 C665.0 358 665.0 358 640 358" fill="none" stroke="#a87714" stroke-opacity=".35" stroke-width="1.5" class="flow"/>
<path d="M820 346 C840.0 346 840.0 276 860 276" fill="none" stroke="#1a1a1a" stroke-opacity=".35" stroke-width="1.5" class="flow"/>
<path d="M820 368 C840.0 368 840.0 366 860 366" fill="none" stroke="#1a1a1a" stroke-opacity=".35" stroke-width="1.5" class="flow"/>
<path d="M922 390 L922 430" fill="none" stroke="#a87714" stroke-opacity=".35" stroke-width="1.5" class="flow"/>
<g><rect x="20" y="220" width="140" height="60" rx="12" fill="#f5f5f5" stroke="#a87714" stroke-opacity="0.55"/><circle cx="36" cy="237" r="4" fill="#a87714" class="pulse"/><text x="50" y="241" font-size="13" font-weight="700" fill="#121212">Frontend</text><text x="36" y="268" font-size="11" fill="#6b6b6b">Nginx · :8080</text></g>
<g><rect x="210" y="220" width="150" height="60" rx="12" fill="#f5f5f5" stroke="#777777" stroke-opacity="0.55"/><circle cx="226" cy="237" r="4" fill="#777777" class="pulse"/><text x="240" y="241" font-size="13" font-weight="700" fill="#121212">Orchestrator</text><text x="226" y="268" font-size="11" fill="#6b6b6b">Flask · :8081</text></g>
<g><rect x="450" y="40" width="190" height="56" rx="12" fill="#f5f5f5" stroke="#a87714" stroke-opacity="0.55"/><circle cx="466" cy="57" r="4" fill="#a87714" class="pulse"/><text x="480" y="61" font-size="13" font-weight="700" fill="#121212">Transaction Verif.</text><text x="466" y="84" font-size="11" fill="#6b6b6b">gRPC · :50052</text></g>
<g><rect x="450" y="130" width="190" height="56" rx="12" fill="#f5f5f5" stroke="#a87714" stroke-opacity="0.55"/><circle cx="466" cy="147" r="4" fill="#a87714" class="pulse"/><text x="480" y="151" font-size="13" font-weight="700" fill="#121212">Fraud Detection</text><text x="466" y="174" font-size="11" fill="#6b6b6b">gRPC · :50051</text></g>
<g><rect x="450" y="220" width="190" height="56" rx="12" fill="#f5f5f5" stroke="#a87714" stroke-opacity="0.55"/><circle cx="466" cy="237" r="4" fill="#a87714" class="pulse"/><text x="480" y="241" font-size="13" font-weight="700" fill="#121212">Suggestions</text><text x="466" y="264" font-size="11" fill="#6b6b6b">Gemma 3 · :50053</text></g>
<g><rect x="450" y="330" width="190" height="56" rx="12" fill="#f5f5f5" stroke="#a87714" stroke-opacity="0.55"/><circle cx="466" cy="347" r="4" fill="#a87714" class="pulse"/><text x="480" y="351" font-size="13" font-weight="700" fill="#121212">Order Queue</text><text x="466" y="374" font-size="11" fill="#6b6b6b">FIFO · :50054</text></g>
<g><rect x="690" y="330" width="130" height="56" rx="12" fill="#f5f5f5" stroke="#1a1a1a" stroke-opacity="0.55"/><circle cx="706" cy="347" r="4" fill="#1a1a1a" class="pulse"/><text x="720" y="351" font-size="13" font-weight="700" fill="#121212">Executor ×3</text><text x="706" y="374" font-size="11" fill="#6b6b6b">bully leader</text></g>
<g><rect x="860" y="250" width="125" height="50" rx="12" fill="#f5f5f5" stroke="#1a1a1a" stroke-opacity="0.55"/><circle cx="876" cy="267" r="4" fill="#1a1a1a" class="pulse"/><text x="890" y="271" font-size="13" font-weight="700" fill="#121212">Payment</text><text x="876" y="288" font-size="11" fill="#6b6b6b">:50058</text></g>
<g><rect x="860" y="340" width="125" height="50" rx="12" fill="#f5f5f5" stroke="#1a1a1a" stroke-opacity="0.55"/><circle cx="876" cy="357" r="4" fill="#1a1a1a" class="pulse"/><text x="890" y="361" font-size="13" font-weight="700" fill="#121212">Books DB</text><text x="876" y="378" font-size="11" fill="#6b6b6b">primary · :50060</text></g>
<g><rect x="860" y="430" width="125" height="44" rx="12" fill="#f5f5f5" stroke="#a87714" stroke-opacity="0.55"/><circle cx="876" cy="447" r="4" fill="#a87714" class="pulse"/><text x="890" y="451" font-size="13" font-weight="700" fill="#121212">Backups ×2</text></g>
<text x="185" y="212" font-size="10" fill="#a87714" text-anchor="middle">POST /checkout</text>
<text x="405" y="24" font-size="10" fill="#777777" text-anchor="middle">init + verify</text>
<text x="755" y="320" font-size="11" fill="#1a1a1a" text-anchor="middle">2PC</text>
<text x="940" y="418" font-size="10" fill="#a87714" text-anchor="middle">replicate</text>
<circle cx="40" cy="491" r="4" fill="#777777"/><text x="52" y="495" font-size="12" fill="#6b6b6b">init / verify (gRPC)</text>
<circle cx="232.0" cy="491" r="4" fill="#a87714"/><text x="244.0" y="495" font-size="12" fill="#6b6b6b">enqueue · replicate</text>
<circle cx="416.6" cy="491" r="4" fill="#1a1a1a"/><text x="428.6" y="495" font-size="12" fill="#6b6b6b">2PC prepare / commit</text>
<circle r="4" fill="#a87714"><animateMotion dur="1.6s" begin="0s" repeatCount="indefinite" path="M160 250 C185.0 250 185.0 250 210 250"/><animate attributeName="opacity" values="0;1;1;0" keyTimes="0;.12;.88;1" dur="1.6s" begin="0s" repeatCount="indefinite"/></circle>
<circle r="4" fill="#777777"><animateMotion dur="2.6s" begin="0.3s" repeatCount="indefinite" path="M360 235 C405.0 235 405.0 68 450 68"/><animate attributeName="opacity" values="0;1;1;0" keyTimes="0;.12;.88;1" dur="2.6s" begin="0.3s" repeatCount="indefinite"/></circle>
<circle r="4" fill="#777777"><animateMotion dur="2.6s" begin="0.6499999999999999s" repeatCount="indefinite" path="M360 245 C405.0 245 405.0 158 450 158"/><animate attributeName="opacity" values="0;1;1;0" keyTimes="0;.12;.88;1" dur="2.6s" begin="0.6499999999999999s" repeatCount="indefinite"/></circle>
<circle r="4" fill="#777777"><animateMotion dur="2.6s" begin="1.0s" repeatCount="indefinite" path="M360 255 C405.0 255 405.0 248 450 248"/><animate attributeName="opacity" values="0;1;1;0" keyTimes="0;.12;.88;1" dur="2.6s" begin="1.0s" repeatCount="indefinite"/></circle>
<circle r="4" fill="#a87714"><animateMotion dur="1.4s" begin="1.0s" repeatCount="indefinite" path="M545 96 L545 130"/><animate attributeName="opacity" values="0;1;1;0" keyTimes="0;.12;.88;1" dur="1.4s" begin="1.0s" repeatCount="indefinite"/></circle>
<circle r="4" fill="#a87714"><animateMotion dur="1.4s" begin="1.6s" repeatCount="indefinite" path="M545 186 L545 220"/><animate attributeName="opacity" values="0;1;1;0" keyTimes="0;.12;.88;1" dur="1.4s" begin="1.6s" repeatCount="indefinite"/></circle>
<circle r="4" fill="#a87714"><animateMotion dur="2.6s" begin="1.2s" repeatCount="indefinite" path="M360 268 C405.0 268 405.0 358 450 358"/><animate attributeName="opacity" values="0;1;1;0" keyTimes="0;.12;.88;1" dur="2.6s" begin="1.2s" repeatCount="indefinite"/></circle>
<circle r="4" fill="#a87714"><animateMotion dur="1.4s" begin="2.0s" repeatCount="indefinite" path="M690 358 C665.0 358 665.0 358 640 358"/><animate attributeName="opacity" values="0;1;1;0" keyTimes="0;.12;.88;1" dur="1.4s" begin="2.0s" repeatCount="indefinite"/></circle>
<circle r="4" fill="#1a1a1a"><animateMotion dur="1.6s" begin="2.6s" repeatCount="indefinite" path="M820 346 C840.0 346 840.0 276 860 276"/><animate attributeName="opacity" values="0;1;1;0" keyTimes="0;.12;.88;1" dur="1.6s" begin="2.6s" repeatCount="indefinite"/></circle>
<circle r="4" fill="#1a1a1a"><animateMotion dur="1.4s" begin="2.8s" repeatCount="indefinite" path="M820 368 C840.0 368 840.0 366 860 366"/><animate attributeName="opacity" values="0;1;1;0" keyTimes="0;.12;.88;1" dur="1.4s" begin="2.8s" repeatCount="indefinite"/></circle>
<circle r="4" fill="#a87714"><animateMotion dur="1.2s" begin="3.4s" repeatCount="indefinite" path="M922 390 L922 430"/><animate attributeName="opacity" values="0;1;1;0" keyTimes="0;.12;.88;1" dur="1.2s" begin="3.4s" repeatCount="indefinite"/></circle>
</svg>